<svg width="242" height="85" viewBox="0 0 242 85" fill="none" xmlns="http://www.w3.org/2000/svg">
<path d="M218.727 53.3688C196.976 53.4867 155.056 55.0892 119.557 63.0351C71.2429 49.9832 8.54687 49.1156 5.95332 47.9629C2.1242 46.2611 167.725 51.9445 218.727 53.3688C228.326 53.3168 233.997 53.554 233.453 53.6627C233.081 53.7372 227.663 53.6184 218.727 53.3688Z" fill="#E91052"/>
<path d="M14.912 20.224H1.024V11.968H28.352V19.328L14.528 34.56V34.688H29.376V42.944H0V36.224L14.912 20.352V20.224Z" fill="white"/>
<path d="M60.523 31.104C60.523 29.696 60.587 28.416 60.715 27.264L60.587 27.072C59.3923 27.2427 58.091 27.3707 56.683 27.456C55.275 27.4987 53.9737 27.4987 52.779 27.456V19.136L69.483 19.072V40.832C67.5203 41.728 65.2803 42.432 62.763 42.944C60.2883 43.4133 57.131 43.648 53.291 43.648C48.171 43.648 44.1603 42.9653 41.259 41.6C38.3577 40.192 36.3097 37.952 35.115 34.88C33.9203 31.7653 33.323 27.6267 33.323 22.464C33.323 18.2827 33.7923 14.848 34.731 12.16C35.7123 9.472 37.1203 7.40267 38.955 5.952C40.8323 4.45867 43.115 3.43467 45.803 2.88C48.491 2.28267 51.563 1.984 55.019 1.984C57.067 1.984 59.115 2.06933 61.163 2.24C63.2537 2.41067 65.323 2.73067 67.371 3.2V11.648L67.179 11.776C65.387 11.3493 63.595 11.0507 61.803 10.88C60.0537 10.7093 58.283 10.624 56.491 10.624C53.8883 10.624 51.6057 10.9013 49.643 11.456C47.723 11.968 46.2297 13.056 45.163 14.72C44.0963 16.384 43.563 18.9653 43.563 22.464C43.563 25.92 43.8403 28.5653 44.395 30.4C44.9923 32.192 46.0803 33.4293 47.659 34.112C49.2803 34.752 51.5843 35.072 54.571 35.072C54.955 35.072 55.5523 35.072 56.363 35.072C57.1737 35.0293 57.9843 34.9867 58.795 34.944C59.6057 34.9013 60.1817 34.8373 60.523 34.752V31.104Z" fill="white"/>
<path d="M88.3805 11.584C92.4765 11.584 95.7832 12.0107 98.3005 12.864C100.818 13.7173 102.653 15.296 103.805 17.6C104.999 19.8613 105.596 23.1467 105.596 27.456V43.072H96.3165L95.9965 40.128H95.8045C94.9938 41.1947 93.7352 42.048 92.0285 42.688C90.3218 43.328 88.1032 43.648 85.3725 43.648C77.9912 43.648 74.3005 40.192 74.3005 33.28C74.3005 30.336 75.2605 28.032 77.1805 26.368C79.1432 24.6613 82.2152 23.808 86.3965 23.808H95.8685C95.5698 22.016 94.8018 20.8213 93.5645 20.224C92.3272 19.584 90.2152 19.264 87.2285 19.264C85.3512 19.264 83.4952 19.4133 81.6605 19.712C79.8685 19.968 78.2898 20.2667 76.9245 20.608L76.7325 20.48L76.7965 13.056C77.6498 12.8 78.7378 12.5653 80.0605 12.352C81.3832 12.096 82.7698 11.904 84.2205 11.776C85.7138 11.648 87.1005 11.584 88.3805 11.584ZM87.9965 36.096C90.6418 36.096 92.6258 35.776 93.9485 35.136C95.2712 34.4533 95.9538 33.3867 95.9965 31.936V30.336H88.7645C86.8872 30.336 85.5645 30.6133 84.7965 31.168C84.0712 31.68 83.7085 32.384 83.7085 33.28C83.7085 34.3467 84.0925 35.0933 84.8605 35.52C85.6285 35.904 86.6738 36.096 87.9965 36.096Z" fill="white"/>
<path d="M122.531 43.072H112.29V0H122.531V43.072Z" fill="white"/>
<path d="M140.468 43.072H130.228V0H140.468V43.072Z" fill="white"/>
<path d="M175.622 42.048C174.427 42.4747 172.763 42.8587 170.63 43.2C168.539 43.4987 166.043 43.648 163.141 43.648C159.472 43.648 156.336 43.1787 153.734 42.24C151.174 41.2587 149.232 39.616 147.91 37.312C146.587 34.9653 145.926 31.7227 145.926 27.584C145.926 21.952 147.206 17.8773 149.766 15.36C152.368 12.8427 156.379 11.584 161.798 11.584C165.68 11.584 168.731 12.1387 170.949 13.248C173.211 14.3573 174.811 15.936 175.749 17.984C176.731 19.9893 177.221 22.3787 177.221 25.152C177.221 25.9627 177.179 26.8373 177.094 27.776C177.051 28.7147 176.944 29.632 176.773 30.528L176.518 30.784H155.462C155.76 32.6613 156.635 33.8987 158.085 34.496C159.579 35.0933 161.99 35.392 165.318 35.392C167.536 35.392 169.371 35.3493 170.822 35.264C172.315 35.136 173.829 34.9653 175.365 34.752L175.622 34.944V42.048ZM168.326 24.064C168.326 23.04 168.155 22.1653 167.814 21.44C167.515 20.672 166.896 20.096 165.958 19.712C165.019 19.2853 163.632 19.072 161.798 19.072C159.11 19.072 157.339 19.5413 156.486 20.48C155.675 21.376 155.27 22.5707 155.27 24.064H168.326Z" fill="white"/>
<path d="M192.906 43.072H182.665V11.904H190.986L191.818 18.304H192.01C192.394 15.9147 193.311 14.208 194.762 13.184C196.212 12.1173 198.367 11.584 201.225 11.584C202.377 11.584 203.423 11.648 204.361 11.776C205.3 11.8613 206.09 11.9467 206.73 12.032V22.016L206.602 22.144C205.919 21.9733 205.13 21.824 204.234 21.696C203.38 21.568 202.399 21.504 201.29 21.504C199.711 21.504 198.281 21.76 197.001 22.272C195.764 22.784 194.783 23.7867 194.057 25.28C193.375 26.7307 193.034 28.9067 193.034 31.808L192.906 43.072Z" fill="white"/>
<path d="M214.812 54.848L219.74 43.136L207.388 12.032V11.904H218.844C220.039 15.2747 221.148 18.6667 222.172 22.08C223.239 25.4933 224.092 28.992 224.732 32.576H224.86C225.5 29.0347 226.311 25.5573 227.292 22.144C228.316 18.7307 229.468 15.3173 230.748 11.904H241.756V12.096L225.308 54.976H214.812V54.848Z" fill="white"/>
</svg>
